Simulation
nRows=44
nColumns=15
endheader
time  TH_x TH_y TH_z SC_y  SC_z  SC_x  AC_y  AC_z  AC_x  GH_y  GH_z  GH_yy  EL_x  PS_y
0.75  0.000000  0.000000  0.000000  -50.302740797869404  -9.364620838879073  34.93957339033752  63.851667164002805  -20.315266496999477  29.322123553617722  20.524475421243974  35.56898317868674  -19.520535113705314  19.919885625368494  0.000000
0.765  0.000000  0.000000  0.000000  -50.43774515776257  -9.28140501191149  34.95759660819973  63.830576016480016  -20.30943293009243  29.341652983084664  20.517832918117293  36.03415849951276  -19.806175729572427  19.715701468725197  0.000000
0.78  0.000000  0.000000  0.000000  -50.56736747721507  -9.196375829589394  34.971611270694794  63.810247533258654  -20.30444974049282  29.361226363847326  20.521574983364513  36.48849181630954  -20.092392122276287  19.50991294111529  0.000000
0.7949999999999999  0.000000  0.000000  0.000000  -50.707743988747815  -9.112688289335546  34.99475225423059  63.79091328596724  -20.301301435508552  29.381185585128904  20.53414959589261  36.93095992308939  -20.377859904482488  19.303195107684513  0.000000
0.8099999999999999  0.000000  0.000000  0.000000  -50.84255913665292  -9.026615294800024  35.01427143461591  63.772037183640485  -20.299608575696325  29.401095417794096  20.556494088740273  37.36112876764994  -20.663876447621018  19.09623661735874  0.000000
0.825  0.000000  0.000000  0.000000  -50.98756205920416  -8.940764698595338  35.04359831719679  63.75287767724023  -20.30091064725855  29.421094164095376  20.587467189767285  37.777847896424916  -20.94947115711827  18.88947325124493  0.000000
0.84  0.000000  0.000000  0.000000  -51.12540916942544  -8.850547117763469  35.07106321604256  63.73119920548988  -20.30621925952408  29.44075378136089  20.627653063619544  38.18048270832822  -21.236129827203396  18.68329473198105  0.000000
0.855  0.000000  0.000000  0.000000  -51.27206669637168  -8.758315368204562  35.11101707387643  63.706717700040535  -20.317298243043986  29.459675405244244  20.675310156926347  38.56835743488951  -21.520966619256455  18.47816955759343  0.000000
0.87  0.000000  0.000000  0.000000  -51.41119457309581  -8.662133283614365  35.14912101647374  63.68069605048017  -20.33190416096773  29.477898479452588  20.729898003812934  38.942392318400444  -21.80335779454242  18.274816841170008  0.000000
0.885  0.000000  0.000000  0.000000  -51.55862565737947  -8.566872375538384  35.1961752191702  63.65429963644407  -20.348998683815047  29.49613507022171  20.789438153797292  39.3030274333826  -22.081983590339153  18.07428095519634  0.000000
0.8999999999999999  0.000000  0.000000  0.000000  -51.69724457436935  -8.470209879648191  35.23872096148436  63.627779670921946  -20.36730111695914  29.514131234550373  20.85366204875379  39.650837529444345  -22.356965835745697  17.877186799896595  0.000000
0.9149999999999999  0.000000  0.000000  0.000000  -51.84248901779661  -8.376185021961462  35.288639499018295  63.60166915915593  -20.386804751922888  29.532220994235324  20.92067115050431  39.98610626563452  -22.627064127397198  17.68431277726196  0.000000
0.9299999999999999  0.000000  0.000000  0.000000  -51.977107728959005  -8.28223605251961  35.33262931058451  63.57593919418896  -20.406502398966108  29.55007162709836  20.990267234768883  40.30931658052426  -22.89242520734747  17.49621027546323  0.000000
0.945  0.000000  0.000000  0.000000  -52.11686793245294  -8.192076300468566  35.38287862920165  63.55093497537841  -20.42665409276752  29.567942420693793  21.060783114651123  40.62044357883396  -23.151650205792592  17.313635450527865  0.000000
0.96  0.000000  0.000000  0.000000  -52.24464282768567  -8.103093867517128  35.42616305037946  63.526577176922274  -20.44634941460803  29.58546269183447  21.132046085415563  40.91982703687784  -23.404899687121958  17.137161898407726  0.000000
0.975  0.000000  0.000000  0.000000  -52.37631574262133  -8.018815103878516  35.47504156717378  63.50333135348061  -20.465968489821424  29.602892804779653  21.201882827590754  41.20734854909134  -23.650148813477546  16.967470476967556  0.000000
0.99  0.000000  0.000000  0.000000  -52.49482928842333  -7.936598014580286  35.51639649239924  63.48121660575946  -20.484630509718052  29.61988380959582  21.269938445831716  41.48329359921013  -23.88758172795848  16.80512305004333  0.000000
1.005  0.000000  0.000000  0.000000  -52.61643820692221  -7.859698048638905  35.56291387919288  63.4606012834661  -20.502890839288007  29.63677407916954  21.334346867797127  41.747407349698385  -24.115230039821654  16.65073146365916  0.000000
1.02  0.000000  0.000000  0.000000  -52.72424448637293  -7.785441175200762  35.60148958027301  63.44139301373995  -20.519911887277953  29.653111468805815  21.395167308391276  41.99996513755061  -24.3337056250006  16.504872165906722  0.000000
1.035  0.000000  0.000000  0.000000  -52.83464703876531  -7.716960735686364  35.644949313981826  63.42385764154323  -20.53635650056692  29.669213949169492  21.450625849752367  42.24080540989916  -24.540879900111243  16.368112989771486  0.000000
1.05  0.000000  0.000000  0.000000  -52.930818478226875  -7.651462818423735  35.680237278082274  63.407886544154884  -20.55142136273956  29.68462379635475  21.500908718708914  42.47033823794274  -24.73762123329951  16.240982193505875  0.000000
1.065  0.000000  0.000000  0.000000  -53.029334364264905  -7.59193796261318  35.72027408574268  63.39365576404639  -20.565861505590885  29.699724743875827  21.544321619004247  42.688556281871804  -24.921652759746806  16.12397543789623  0.000000
1.08  0.000000  0.000000  0.000000  -53.11345301812259  -7.53545525839375  35.752037163925  63.381035499404234  -20.578862155097596  29.714036235530816  21.58123456263195  42.896083549279275  -25.09418450435549  16.017553142117944  0.000000
1.095  0.000000  0.000000  0.000000  -53.199911869249384  -7.484828945846536  35.788486159457236  63.370100991789215  -20.59127444656705  29.72806613861797  21.610070078836007  43.093212732633525  -25.252861560278966  15.922074810322828  0.000000
1.1099999999999999  0.000000  0.000000  0.000000  -53.272060534335054  -7.436982388843772  35.816623129376396  63.360675365504555  -20.602224829502127  29.74128333454684  21.63137208298365  43.28086036251908  -25.399227732181366  15.837964321181797  0.000000
1.125  0.000000  0.000000  0.000000  -53.34680073526679  -7.394550150073768  35.849408773703296  63.35267995281221  -20.61262361488902  29.754317814292765  21.643715842811662  43.459697462989986  -25.530857394337787  15.765444247571898  0.000000
1.14  0.000000  0.000000  0.000000  -53.40758778739479  -7.354232197798323  35.87384865730119  63.3458667280202  -20.621544451056568  29.76659837822136  21.647909093065792  43.6310353214612  -25.64977684762656  15.704834618578458  0.000000
1.155  0.000000  0.000000  0.000000  -53.47150194284042  -7.318451073647247  35.902871755439705  63.339936284973064  -20.62995560438662  29.778888743535514  21.642753432347522  43.795959662725885  -25.75346038771491  15.656225320759653  0.000000
1.17  0.000000  0.000000  0.000000  -53.52213933309962  -7.283621342957726  35.92347359045633  63.33451503722802  -20.636856488932352  29.790541212532844  21.62947677289892  43.95615036538428  -25.844592920061608  15.619828084495559  0.000000
1.185  0.000000  0.000000  0.000000  -53.576789387750146  -7.25189312424692  35.94852019343981  63.32900737507036  -20.643290402116293  29.8024701782492  21.607285564345677  44.113030397338655  -25.920590426821466  15.595553198748805  0.000000
1.2  0.000000  0.000000  0.000000  -53.619231091330626  -7.219319376226884  35.964984787198304  63.32285264869461  -20.648179728520198  29.813909682224523  21.57805353203042  44.26846058176242  -25.98498603477032  15.583505958486287  0.000000
1.2149999999999999  0.000000  0.000000  0.000000  -53.66699942587919  -7.187729477738663  35.98564222398441  63.31507327592125  -20.652670568325256  29.825918646570056  21.54164191836868  44.423904124055824  -26.035169400069044  15.58337740699568  0.000000
1.23  0.000000  0.000000  0.000000  -53.70409197920799  -7.1527515593847655  35.9974347192636  63.30486849760116  -20.655622861602264  29.837557752388005  21.50084570525264  44.58094540498238  -26.075746598231877  15.595164671817816  0.000000
1.2449999999999999  0.000000  0.000000  0.000000  -53.74830817145358  -7.115871558535992  36.013014055725364  63.290805934402854  -20.658327480928108  29.85000935966263  21.45646412680502  44.740464905290764  -26.104088727650097  15.618277400053524  0.000000
1.26  0.000000  0.000000  0.000000  -53.7838588092391  -7.072281429094278  36.01927993890247  63.27182102491299  -20.659610611120694  29.862088694620997  21.412468039251728  44.902925879435024  -26.126099761409307  15.652596877867236  0.000000
1.275  0.000000  0.000000  0.000000  -53.82876999163549  -7.023156586667746  36.02871735926087  63.245984545007936  -20.660960592776235  29.8750640648737  21.370824955400547  45.067554850208424  -26.139057614537077  15.69714553469016  0.000000
1.29  0.000000  0.000000  0.000000  -53.86736433741533  -6.9633134380550175  36.02816038624598  63.2119807439214  -20.66120428250401  29.887405776466963  21.3368116112418  45.23233926586689  -26.150317493238322  15.751666278955314  0.000000
1.305  0.000000  0.000000  0.000000  -53.91774392488652  -6.893749652843813  36.02985641330387  63.1673700280244  -20.66207914043386  29.90040592830192  21.31364033574783  45.39320674207997  -26.156826783914468  15.814607475843188  0.000000
1.3199999999999998  0.000000  0.000000  0.000000  -53.964056402844164  -6.808997632686558  36.020506875840475  63.11065595814149  -20.662444003417548  29.91206628419308  21.30775871861659  45.543721024512216  -26.16735866780802  15.885506753587437  0.000000
1.335  0.000000  0.000000  0.000000  -54.024027496470815  -6.710239662231654  36.01193721002434  63.03894753553006  -20.664319723840883  29.92367498524201  21.32328624234027  45.67431919664629  -26.17798457930668  15.961867660003032  0.000000
1.3499999999999999  0.000000  0.000000  0.000000  -54.08077144005003  -6.592104293039814  35.99050355950143  62.95067920050317  -20.66632946509954  29.93235071652842  21.36724108178517  45.771640016688885  -26.198566415715995  16.042954893484012  0.000000
1.365  0.000000  0.000000  0.000000  -54.15088756369287  -6.4572665131778  35.96684859618638  62.84283414139601  -20.670502541950846  29.939572197194025  21.444106485338295  45.81800999020105  -26.223717318410124  16.124527164567855  0.000000
1.38  0.000000  0.000000  0.000000  -54.21432912205959  -6.298504714017439  35.92567267408116  62.71540467623804  -20.675451224028617  29.942804365899864  21.558200511742264  45.792116372619404  -26.26258401204995  16.204774670807026  0.000000
1.395  0.000000  0.000000  0.000000  -54.28043382260749  -6.1264285856812934  35.87421946041772  62.56436062017463  -20.68184521890127  29.94290485420075  21.709691322921028  45.6689100943333  -26.30540376446166  16.27688409127884  0.000000
